# xmcd CD database file
# Copyright (C) 1997 Ti Kan
# 
# Track frame offsets:
#     150
#     17453
#     31345
#     45465
#     63920
#     77500
#     96120
#     109075
#     124588
#     144910
#     159465
#     179045
#     200138
# 
# Disc length: 2884 seconds
# 
# Revision: 1
# Processed by: cddbd v1.4b41PL1 Copyright (c) Steve Scherf et al.
# Submitted via: DiscPlay 4.0.3
# 
DISCID=a30b420d
DTITLE=One Horse Blue - One Horse Blue
DYEAR=1900
DGENRE=
TTITLE0=Starting All Over Again
TTITLE1=Love's Looking For Me
TTITLE2=Skyrocket
TTITLE3=Baby Don't Cry
TTITLE4=Everything Money Can Buy
TTITLE5=Bringing Back Love
TTITLE6=Hopeless Love
TTITLE7=Don't Lose Sight
TTITLE8=Devil's Train
TTITLE9=You're Always Right
TTITLE10=The Man Walks Alone
TTITLE11=Colours Of Love
TTITLE12=Ride The Wind
EXTD=
EXTT0=
EXTT1=
EXTT2=
EXTT3=
EXTT4=
EXTT5=
EXTT6=
EXTT7=
EXTT8=
EXTT9=
EXTT10=
EXTT11=
EXTT12=
PLAYORDER=
